<!DOCTYPE svg PUBLIC "-//W3C//DTD SVG 1.1//EN" "http://www.w3.org/Graphics/SVG/1.1/DTD/svg11.dtd">
<!-- Uploaded to: SVG Repo, www.svgrepo.com, Transformed by: SVG Repo Mixer Tools -->
<svg fill="#838383" width="100px" height="100px" viewBox="0 0 1024 1024" xmlns="http://www.w3.org/2000/svg" stroke="#838383">
<g id="SVGRepo_bgCarrier" stroke-width="0"/>
<g id="SVGRepo_tracerCarrier" stroke-linecap="round" stroke-linejoin="round"/>
<g id="SVGRepo_iconCarrier">
<path d="M145.408 92.16v147.456c0 11.311 9.169 20.48 20.48 20.48s20.48-9.169 20.48-20.48V92.16c0-11.311-9.169-20.48-20.48-20.48s-20.48 9.169-20.48 20.48z"/>
<path d="M92.16 186.368h147.456c11.311 0 20.48-9.169 20.48-20.48s-9.169-20.48-20.48-20.48H92.16c-11.311 0-20.48 9.169-20.48 20.48s9.169 20.48 20.48 20.48zm744.375 210.043v147.456c0 11.311 9.169 20.48 20.48 20.48s20.48-9.169 20.48-20.48V396.411c0-11.311-9.169-20.48-20.48-20.48s-20.48 9.169-20.48 20.48z"/>
<path d="M783.287 490.619h147.456c11.311 0 20.48-9.169 20.48-20.48s-9.169-20.48-20.48-20.48H783.287c-11.311 0-20.48 9.169-20.48 20.48s9.169 20.48 20.48 20.48zM243.712 269.261v102.502c0 11.311 9.169 20.48 20.48 20.48s20.48-9.169 20.48-20.48V269.261c0-11.311-9.169-20.48-20.48-20.48s-20.48 9.169-20.48 20.48z"/>
<path d="M212.941 340.992h102.502c11.311 0 20.48-9.169 20.48-20.48s-9.169-20.48-20.48-20.48H212.941c-11.311 0-20.48 9.169-20.48 20.48s9.169 20.48 20.48 20.48zm262.712 93.874l-55.951-110.111c-3.461-6.812 1.488-14.879 9.124-14.879h168.202c7.646 0 12.595 8.066 9.133 14.88l-55.95 110.109c-5.124 10.084-1.103 22.412 8.98 27.536s22.412 1.103 27.536-8.98l55.951-110.111c17.306-34.066-7.442-74.394-45.65-74.394H428.826c-38.201 0-62.944 40.331-45.641 74.392l55.952 110.112c5.124 10.084 17.452 14.104 27.536 8.98s14.104-17.452 8.98-27.536z"/>
<path d="M678.482 908.305c73.722 0 133.478-59.756 133.478-133.478v-39.393c0-145.341-119.005-264.346-264.346-264.346h-69.376c-145.339 0-264.335 119.003-264.335 264.346v39.393c0 73.722 59.756 133.478 133.478 133.478h331.1zm0 40.96h-331.1c-96.344 0-174.438-78.095-174.438-174.438v-39.393c0-167.964 137.335-305.306 305.295-305.306h69.376c167.962 0 305.306 137.343 305.306 305.306v39.393c0 96.344-78.095 174.438-174.438 174.438z"/>
</g>
</svg>