<!DOCTYPE svg PUBLIC "-//W3C//DTD SVG 1.1//EN" "http://www.w3.org/Graphics/SVG/1.1/DTD/svg11.dtd">
<!-- Uploaded to: SVG Repo, www.svgrepo.com, Transformed by: SVG Repo Mixer Tools -->
<svg width="100px" height="100px" viewBox="0 0 24 24" xmlns="http://www.w3.org/2000/svg" fill="none" stroke="#838383" stroke-width="1" stroke-linecap="round" stroke-linejoin="miter">
<g id="SVGRepo_bgCarrier" stroke-width="0"/>
<g id="SVGRepo_tracerCarrier" stroke-linecap="round" stroke-linejoin="round"/>
<g id="SVGRepo_iconCarrier">
<circle cx="10" cy="6" r="4" fill="#a3a3a3" opacity="0.1" stroke-width="0"/>
<circle cx="10" cy="6" r="4"/>
<path d="M18,22a7.89,7.89,0,0,0-8-8,7.89,7.89,0,0,0-8,8Z" fill="#a3a3a3" opacity="0.1" stroke-width="0"/>
<path d="M18,22a7.89,7.89,0,0,0-8-8,7.89,7.89,0,0,0-8,8Z"/>
<path d="M16.83,3.17a4.13,4.13,0,0,1,.86,1.27,4.08,4.08,0,0,1,0,3.12,4.13,4.13,0,0,1-.86,1.27"/>
<path d="M21.8,19.86A11.12,11.12,0,0,0,18,13.5"/>
</g>
</svg>