<!DOCTYPE svg PUBLIC "-//W3C//DTD SVG 1.1//EN" "http://www.w3.org/Graphics/SVG/1.1/DTD/svg11.dtd">
<!-- Uploaded to: SVG Repo, www.svgrepo.com, Transformed by: SVG Repo Mixer Tools -->
<svg version="1.1" id="Uploaded to svgrepo.com" xmlns="http://www.w3.org/2000/svg" xmlns:xlink="http://www.w3.org/1999/xlink" width="100px" height="100px" viewBox="0 0 32 32" xml:space="preserve" fill="#000000">
<g id="SVGRepo_bgCarrier" stroke-width="0"/>
<g id="SVGRepo_tracerCarrier" stroke-linecap="round" stroke-linejoin="round"/>
<g id="SVGRepo_iconCarrier"> <style type="text/css"> .blueprint_een{fill:#838383;} </style> <path class="blueprint_een" d="M6.5,17h9.55c0.245,1.694,1.688,3,3.45,3s3.205-1.306,3.45-3h2.55c1.223,0,2.239-0.884,2.454-2.046 C29.67,14.729,31,13.277,31,11.5s-1.33-3.229-3.046-3.454C27.739,6.884,26.723,6,25.5,6h-6.55c-0.245-1.694-1.688-3-3.45-3 s-3.205,1.306-3.45,3H9.95C9.705,4.306,8.262,3,6.5,3C4.567,3,3,4.567,3,6.5S4.567,10,6.5,10c1.762,0,3.205-1.306,3.45-3h2.101 c0.245,1.694,1.688,3,3.45,3s3.205-1.306,3.45-3h6.55c0.672,0,1.236,0.447,1.426,1.058C25.268,8.333,24,9.764,24,11.5 s1.268,3.167,2.926,3.442C26.736,15.553,26.172,16,25.5,16h-2.55c-0.245-1.694-1.688-3-3.45-3s-3.205,1.306-3.45,3H6.5 c-1.223,0-2.239,0.884-2.454,2.046C2.33,18.271,1,19.723,1,21.5s1.33,3.229,3.046,3.454C4.261,26.116,5.277,27,6.5,27h2.55 c0.245,1.694,1.688,3,3.45,3s3.205-1.306,3.45-3h6.101c0.245,1.694,1.688,3,3.45,3c1.933,0,3.5-1.567,3.5-3.5S27.433,23,25.5,23 c-1.762,0-3.205,1.306-3.45,3H15.95c-0.245-1.694-1.688-3-3.45-3s-3.205,1.306-3.45,3H6.5c-0.672,0-1.236-0.447-1.426-1.058 C6.732,24.667,8,23.236,8,21.5s-1.268-3.167-2.926-3.442C5.264,17.447,5.828,17,6.5,17z M6.5,8C5.673,8,5,7.327,5,6.5S5.673,5,6.5,5 S8,5.673,8,6.5S7.327,8,6.5,8z M15.5,8C14.673,8,14,7.327,14,6.5S14.673,5,15.5,5S17,5.673,17,6.5S16.327,8,15.5,8z M26,11.5 c0-0.827,0.673-1.5,1.5-1.5s1.5,0.673,1.5,1.5S28.327,13,27.5,13S26,12.327,26,11.5z M19.5,15c0.827,0,1.5,0.673,1.5,1.5 S20.327,18,19.5,18S18,17.327,18,16.5S18.673,15,19.5,15z M25.5,25c0.827,0,1.5,0.673,1.5,1.5S26.327,28,25.5,28S24,27.327,24,26.5 S24.673,25,25.5,25z M12.5,25c0.827,0,1.5,0.673,1.5,1.5S13.327,28,12.5,28S11,27.327,11,26.5S11.673,25,12.5,25z M6,21.5 C6,22.327,5.327,23,4.5,23S3,22.327,3,21.5S3.673,20,4.5,20S6,20.673,6,21.5z"/> </g>
</svg>